<?xml version="1.0" encoding="UTF-8"?>
<svg version="1.1" xmlns="http://www.w3.org/2000/svg" width="512" height="512">
<path d="M0 0 C1.12855637 0.71277244 2.23681107 1.45969793 3.3125 2.25 C4.199375 2.8275 5.08625 3.405 6 4 C12.08730679 9.92278499 14.6647423 17.36261235 17.17578125 25.3046875 C17.52512222 26.37938797 17.8744632 27.45408844 18.23439026 28.56135559 C19.37501466 32.07929892 20.50010948 35.60199742 21.625 39.125 C22.4165738 41.57687168 23.20906629 44.02844693 24.00244141 46.47973633 C26.04796885 52.81002978 28.07998425 59.14454152 30.10662842 65.480896 C31.28554735 69.16575608 32.46680167 72.84985844 33.64892578 76.53369141 C36.50069527 85.42192704 39.35189938 94.31032344 42.18481445 103.20458984 C42.49910904 104.19104492 42.81340363 105.1775 43.13722229 106.19384766 C43.73668632 108.07585783 44.33569492 109.95801314 44.93418884 111.84033203 C46.7783093 117.62582905 48.68310411 123.38438073 50.68798828 129.11645508 C51.3125 131.25 51.3125 131.25 51.3125 134.25 C52.58101807 134.51087402 53.84953613 134.77174805 55.15649414 135.04052734 C60.49276645 136.2295142 65.62572999 137.87403456 70.80859375 139.6015625 C71.81510986 139.93286163 72.82162598 140.26416077 73.85864258 140.60549927 C77.15698502 141.69166085 80.45345163 142.78340684 83.75 143.875 C88.42618356 145.41680279 93.10354258 146.95501481 97.78125 148.4921875 C98.97624619 148.88515015 100.17124237 149.27811279 101.40245056 149.6829834 C109.72448025 152.41456665 118.05994717 155.10137395 126.40625 157.7578125 C127.53547379 158.11739044 128.66469757 158.47696838 129.82814026 158.84744263 C135.22604787 160.56482868 140.62567349 162.27662539 146.02709961 163.98291016 C179.69952229 174.65636117 179.69952229 174.65636117 186.3125 187.25 C188.57127421 194.02632264 188.72871615 204.48090236 185.5625 210.9375 C184.84972756 212.06605637 184.10280207 213.17431107 183.3125 214.25 C182.735 215.136875 182.1575 216.02375 181.5625 216.9375 C175.63971501 223.02480679 168.19988765 225.6022423 160.2578125 228.11328125 C159.18311203 228.46262222 158.10841156 228.8119632 157.00114441 229.17189026 C153.48320108 230.31251466 149.96050258 231.43760948 146.4375 232.5625 C143.98562832 233.3540738 141.53405307 234.14656629 139.08276367 234.93994141 C132.75247022 236.98546885 126.41795848 239.01748425 120.081604 241.04412842 C116.39674392 242.22304735 112.71264156 243.40430167 109.02880859 244.58642578 C100.14057296 247.43819527 91.25217656 250.28939938 82.35791016 253.12231445 C81.37145508 253.43660904 80.385 253.75090363 79.36865234 254.07472229 C77.48664217 254.67418632 75.60448686 255.27319492 73.72216797 255.87168884 C67.93667095 257.7158093 62.17811927 259.62060411 56.44604492 261.62548828 C54.3125 262.25 54.3125 262.25 51.3125 262.25 C50.92118896 264.1527771 50.92118896 264.1527771 50.52197266 266.09399414 C49.3329858 271.43026645 47.68846544 276.56322999 45.9609375 281.74609375 C45.62963837 282.75260986 45.29833923 283.75912598 44.95700073 284.79614258 C43.87083915 288.09448502 42.77909316 291.39095163 41.6875 294.6875 C40.14569721 299.36368356 38.60748519 304.04104258 37.0703125 308.71875 C36.67734985 309.91374619 36.28438721 311.10874237 35.8795166 312.33995056 C33.14793335 320.66198025 30.46112605 328.99744717 27.8046875 337.34375 C27.44510956 338.47297379 27.08553162 339.60219757 26.71505737 340.76564026 C24.99767132 346.16354787 23.28587461 351.56317349 21.57958984 356.96459961 C10.90613883 390.63702229 10.90613883 390.63702229 -1.6875 397.25 C-8.46382264 399.50877421 -18.91840236 399.66621615 -25.375 396.5 C-26.50355637 395.78722756 -27.61181107 395.04030207 -28.6875 394.25 C-29.574375 393.6725 -30.46125 393.095 -31.375 392.5 C-37.10429566 386.92555017 -39.76318401 380.00212643 -42.11328125 372.5078125 C-42.41804886 371.56683212 -42.72281647 370.62585175 -43.03681946 369.65635681 C-44.03494402 366.56580832 -45.01750545 363.47054907 -46 360.375 C-46.69809981 358.20338705 -47.39717245 356.03208662 -48.09716797 353.86108398 C-49.93381191 348.15534041 -51.75707742 342.44541556 -53.57659912 336.73419189 C-55.40593753 330.99671686 -57.24442805 325.26217594 -59.08203125 319.52734375 C-61.15332372 313.06213037 -63.22316381 306.59648387 -65.2824707 300.12744141 C-65.90958383 298.15915288 -66.53677899 296.19089048 -67.1640625 294.22265625 C-67.46175034 293.28748169 -67.75943817 292.35230713 -68.06614685 291.38879395 C-69.50403903 286.88796335 -70.96559645 282.3972749 -72.47949219 277.92138672 C-72.76118256 277.08804306 -73.04287292 276.2546994 -73.33309937 275.39610291 C-73.86100226 273.842181 -74.39298823 272.28963774 -74.92984009 270.73878479 C-75.93724217 267.77979485 -76.6875 265.39992031 -76.6875 262.25 C-77.92894775 261.99814941 -79.17039551 261.74629883 -80.44946289 261.48681641 C-86.26092335 260.19157654 -91.85201887 258.34218891 -97.49609375 256.4609375 C-99.20638008 255.89719673 -99.20638008 255.89719673 -100.95121765 255.32206726 C-104.03739821 254.30439634 -107.12237812 253.2831819 -110.20688629 252.26045609 C-116.06900674 250.31838138 -121.93501034 248.38804543 -127.80078125 246.45703125 C-128.4611161 246.23948874 -129.12145096 246.02194622 -129.80179596 245.79781151 C-139.30272832 242.66907977 -148.81985084 239.59597059 -158.35546875 236.57421875 C-159.50371628 236.20987732 -160.65196381 235.84553589 -161.83500671 235.47015381 C-167.26938564 233.74725593 -172.70614898 232.03240743 -178.14624023 230.32763672 C-180.10017054 229.70954024 -182.05403191 229.09122581 -184.0078125 228.47265625 C-185.31029182 228.06910164 -185.31029182 228.06910164 -186.63908386 227.65739441 C-197.76153644 224.11888495 -206.03534655 219.83691819 -211.6875 209.25 C-213.94627421 202.47367736 -214.10371615 192.01909764 -210.9375 185.5625 C-210.22472756 184.43394363 -209.47780207 183.32568893 -208.6875 182.25 C-208.11 181.363125 -207.5325 180.47625 -206.9375 179.5625 C-201.36305017 173.83320434 -194.43962643 171.17431599 -186.9453125 168.82421875 C-185.53384193 168.36706734 -185.53384193 168.36706734 -184.09385681 167.90068054 C-181.00330832 166.90255598 -177.90804907 165.91999455 -174.8125 164.9375 C-172.64088705 164.23940019 -170.46958662 163.54032755 -168.29858398 162.84033203 C-162.59284041 161.00368809 -156.88291556 159.18042258 -151.17169189 157.36090088 C-145.43421686 155.53156247 -139.69967594 153.69307195 -133.96484375 151.85546875 C-127.49963037 149.78417628 -121.03398387 147.71433619 -114.56494141 145.6550293 C-112.59665288 145.02791617 -110.62839048 144.40072101 -108.66015625 143.7734375 C-107.25739441 143.32690575 -107.25739441 143.32690575 -105.82629395 142.87135315 C-101.32546335 141.43346097 -96.8347749 139.97190355 -92.35888672 138.45800781 C-91.52554306 138.17631744 -90.6921994 137.89462708 -89.83360291 137.60440063 C-88.279681 137.07649774 -86.72713774 136.54451177 -85.17628479 136.00765991 C-82.21729485 135.00025783 -79.83742031 134.25 -76.6875 134.25 C-76.43564941 133.00855225 -76.18379883 131.76710449 -75.92431641 130.48803711 C-74.62907654 124.67657665 -72.77968891 119.08548113 -70.8984375 113.44140625 C-70.52261032 112.30121536 -70.14678314 111.16102448 -69.75956726 109.98628235 C-68.74189634 106.90010179 -67.7206819 103.81512188 -66.69795609 100.73061371 C-64.75588138 94.86849326 -62.82554543 89.00248966 -60.89453125 83.13671875 C-60.67698874 82.4763839 -60.45944622 81.81604904 -60.23531151 81.13570404 C-57.10657977 71.63477168 -54.03347059 62.11764916 -51.01171875 52.58203125 C-50.64737732 51.43378372 -50.28303589 50.28553619 -49.90765381 49.10249329 C-48.18475593 43.66811436 -46.46990743 38.23135102 -44.76513672 32.79125977 C-44.14704024 30.83732946 -43.52872581 28.88346809 -42.91015625 26.9296875 C-42.50660164 25.62720818 -42.50660164 25.62720818 -42.09489441 24.29841614 C-38.55638495 13.17596356 -34.27441819 4.90215345 -23.6875 -0.75 C-16.91117736 -3.00877421 -6.45659764 -3.16621615 0 0 Z " fill="#28DDF5" transform="translate(212.6875,97.75)"/>
<path d="M0 0 C6.48843322 6.16401156 8.48864983 13.60774811 11.16015625 21.953125 C11.59488604 23.2884797 12.03040115 24.62357897 12.46665955 25.95843506 C13.60969123 29.46345307 14.74145825 32.9720102 15.87103271 36.48138428 C16.78800656 39.32409222 17.71266851 42.1642688 18.63782597 45.00432205 C20.56224694 50.91206092 22.48030988 56.82185404 24.38696289 62.73535156 C24.95966164 64.43913467 24.95966164 64.43913467 25.54393005 66.17733765 C26.5 69.375 26.5 69.375 26.89857483 72.26724243 C27.35413059 75.19188492 27.79568979 76.94192547 29.5 79.375 C34.43250034 82.20953984 39.67234784 83.67184391 45.11328125 85.2421875 C46.68766147 85.73010964 48.26082766 86.22196485 49.83280945 86.71755981 C53.96792395 88.01107507 58.11596246 89.25640233 62.26916504 90.49041748 C68.90842007 92.47327154 75.52390619 94.53460283 82.14262962 96.58469009 C84.44894302 97.29261264 86.75972984 97.98374693 89.07209778 98.67160034 C90.49774068 99.10365638 91.92333623 99.53586869 93.34887695 99.96826172 C95.20727959 100.52258377 95.20727959 100.52258377 97.10322571 101.08810425 C103.21045827 103.40187931 107.71450978 106.3754826 110.5 112.375 C111.25381535 117.9747712 111.27303575 122.70999991 108.875 127.875 C102.71098844 134.36343322 95.26725189 136.36364983 86.921875 139.03515625 C85.5865203 139.46988604 84.25142103 139.90540115 82.91656494 140.34165955 C79.41154693 141.48469123 75.9029898 142.61645825 72.39361572 143.74603271 C69.55090778 144.66300656 66.7107312 145.58766851 63.87067795 146.51282597 C57.96293908 148.43724694 52.05314596 150.35530988 46.13964844 152.26196289 C45.00594818 152.63674271 43.87224792 153.01152252 42.70419312 153.3976593 C39.5 154.375 39.5 154.375 36.54898071 154.9650116 C31.59635826 155.96328565 31.59635826 155.96328565 28.09509277 159.36277771 C26.92605393 162.05598937 26.09250729 164.71470007 25.3046875 167.54296875 C24.82166672 169.08263054 24.82166672 169.08263054 24.32888794 170.65339661 C23.30520923 173.94590692 22.33918383 177.25213551 21.375 180.5625 C20.72129055 182.70755502 20.06377016 184.85145255 19.40234375 186.99414062 C18.08271491 191.28340324 16.77616156 195.57630184 15.47949219 199.87255859 C13.47810157 206.46982273 11.43644093 213.05187409 9.3203125 219.61328125 C9.01108856 220.60780807 8.70186462 221.6023349 8.38327026 222.6269989 C6.3279646 228.91331392 4.15765008 233.83374111 -1.4453125 237.7265625 C-7.1993258 239.54246784 -13.58150698 239.2657289 -19 236.75 C-25.48843322 230.58598844 -27.48864983 223.14225189 -30.16015625 214.796875 C-30.59488604 213.4615203 -31.03040115 212.12642103 -31.46665955 210.79156494 C-32.60969123 207.28654693 -33.74145825 203.7779898 -34.87103271 200.26861572 C-35.78800656 197.42590778 -36.71266851 194.5857312 -37.63782597 191.74567795 C-39.56224694 185.83793908 -41.48030988 179.92814596 -43.38696289 174.01464844 C-43.76272461 172.88062088 -44.13848633 171.74659332 -44.52563477 170.57820129 C-45.5 167.375 -45.5 167.375 -46.06323242 164.4329071 C-47.07274299 159.39919512 -47.07274299 159.39919512 -50.62483215 155.92440796 C-53.52329525 154.68671748 -56.3967025 153.78242995 -59.4296875 152.92578125 C-60.52983185 152.57919968 -61.6299762 152.2326181 -62.76345825 151.87553406 C-66.28997061 150.77389367 -69.83057187 149.72987948 -73.375 148.6875 C-75.68997869 147.9771304 -78.00379827 147.26297177 -80.31640625 146.54492188 C-84.86166152 145.13870204 -89.41063337 143.74588637 -93.96386719 142.36572266 C-100.09433826 140.50182136 -106.21895713 138.62531454 -112.3203125 136.66796875 C-113.16705536 136.40800613 -114.01379822 136.14804352 -114.88619995 135.88020325 C-120.71454868 133.98135835 -125.25255572 131.60976085 -128.8515625 126.4296875 C-130.66746784 120.6756742 -130.3907289 114.29349302 -127.875 108.875 C-122.04503771 102.73819759 -115.35798227 100.74335877 -107.4453125 98.22265625 C-106.27096649 97.8406456 -105.09662048 97.45863495 -103.88668823 97.06504822 C-100.13553539 95.84719695 -96.38037021 94.64227561 -92.625 93.4375 C-90.13775239 92.63168749 -87.65077032 91.82505487 -85.1640625 91.01757812 C-83.34881073 90.43166145 -83.34881073 90.43166145 -81.49688721 89.83390808 C-79.09663064 89.05437092 -76.69970845 88.26448763 -74.30633545 87.46406555 C-69.37824331 85.83380802 -64.61565388 84.28291073 -59.47363281 83.5144043 C-55.21842582 82.8203667 -52.07262853 81.95192736 -48.5 79.375 C-43.95951178 72.39687072 -42.14584329 64.00597708 -40 56.0625 C-39.37597252 53.92591943 -38.74580402 51.79112247 -38.109375 49.65820312 C-36.84399509 45.39352928 -35.60430011 41.12265609 -34.3828125 36.84521484 C-32.47905988 30.24213714 -30.45927455 23.68273894 -28.34375 17.14453125 C-28.03304565 16.14951096 -27.72234131 15.15449066 -27.40222168 14.12931824 C-25.33713872 7.84809219 -23.15517335 2.91453811 -17.5546875 -0.9765625 C-11.8006742 -2.79246784 -5.41849302 -2.5157289 0 0 Z " fill="#A2EDF7" transform="translate(401.5,1.625)"/>
<path d="M0 0 C5.54233401 2.5732265 8.7358833 6.64636907 10.86138916 12.28521729 C11.72754099 15.01417897 12.53100859 17.75565676 13.3203125 20.5078125 C13.94349909 22.56695594 14.56855641 24.62553398 15.1953125 26.68359375 C16.16799023 29.90896951 17.12818467 33.13610796 18.05664062 36.37451172 C18.96260489 39.51439312 19.91816725 42.63553791 20.8828125 45.7578125 C21.14675812 46.72453888 21.41070374 47.69126526 21.68264771 48.68728638 C22.89328006 52.49382618 23.74861214 55.18236054 27.17382812 57.42034912 C29.75638149 58.48214443 32.30502836 59.27363374 35 60 C36.48051879 60.49237979 37.95945873 60.98954091 39.43652344 61.4921875 C40.90979953 61.95633597 42.38411371 62.4172005 43.859375 62.875 C45.48578199 63.39029399 47.11208101 63.90592889 48.73828125 64.421875 C51.25382641 65.21558391 53.77020911 66.00629712 56.28857422 66.79101562 C58.75242374 67.56058072 61.21228372 68.34194901 63.671875 69.125 C64.41886658 69.35429199 65.16585815 69.58358398 65.93548584 69.81982422 C71.65275649 71.65309804 76.17962661 74.08381748 80.375 78.5 C82.77303575 83.66500009 82.75381535 88.4002288 82 94 C79.4267735 99.54233401 75.35363093 102.7358833 69.71478271 104.86138916 C66.98582103 105.72754099 64.24434324 106.53100859 61.4921875 107.3203125 C59.43304406 107.94349909 57.37446602 108.56855641 55.31640625 109.1953125 C52.09103049 110.16799023 48.86389204 111.12818467 45.62548828 112.05664062 C42.48560688 112.96260489 39.36446209 113.91816725 36.2421875 114.8828125 C35.27546112 115.14675812 34.30873474 115.41070374 33.31271362 115.68264771 C29.50617382 116.89328006 26.81763946 117.74861214 24.57965088 121.17382812 C23.51785557 123.75638149 22.72636626 126.30502836 22 129 C21.50762021 130.48051879 21.01045909 131.95945873 20.5078125 133.43652344 C20.04366403 134.90979953 19.5827995 136.38411371 19.125 137.859375 C18.60970601 139.48578199 18.09407111 141.11208101 17.578125 142.73828125 C16.78441609 145.25382641 15.99370288 147.77020911 15.20898438 150.28857422 C14.43941928 152.75242374 13.65805099 155.21228372 12.875 157.671875 C12.64570801 158.41886658 12.41641602 159.16585815 12.18017578 159.93548584 C10.34690196 165.65275649 7.91618252 170.17962661 3.5 174.375 C-1.66500009 176.77303575 -6.4002288 176.75381535 -12 176 C-17.54233401 173.4267735 -20.7358833 169.35363093 -22.86138916 163.71478271 C-23.72754099 160.98582103 -24.53100859 158.24434324 -25.3203125 155.4921875 C-25.94349909 153.43304406 -26.56855641 151.37446602 -27.1953125 149.31640625 C-28.16799023 146.09103049 -29.12818467 142.86389204 -30.05664062 139.62548828 C-30.96260489 136.48560688 -31.91816725 133.36446209 -32.8828125 130.2421875 C-33.14675812 129.27546112 -33.41070374 128.30873474 -33.68264771 127.31271362 C-34.89328006 123.50617382 -35.74861214 120.81763946 -39.17382812 118.57965088 C-41.75638149 117.51785557 -44.30502836 116.72636626 -47 116 C-48.48051879 115.50762021 -49.95945873 115.01045909 -51.43652344 114.5078125 C-52.90979953 114.04366403 -54.38411371 113.5827995 -55.859375 113.125 C-57.48578199 112.60970601 -59.11208101 112.09407111 -60.73828125 111.578125 C-63.25382641 110.78441609 -65.77020911 109.99370288 -68.28857422 109.20898438 C-70.75242374 108.43941928 -73.21228372 107.65805099 -75.671875 106.875 C-76.41886658 106.64570801 -77.16585815 106.41641602 -77.93548584 106.18017578 C-83.65275649 104.34690196 -88.17962661 101.91618252 -92.375 97.5 C-94.77303575 92.33499991 -94.75381535 87.5997712 -94 82 C-91.4267735 76.45766599 -87.35363093 73.2641167 -81.71478271 71.13861084 C-78.98582103 70.27245901 -76.24434324 69.46899141 -73.4921875 68.6796875 C-71.43304406 68.05650091 -69.37446602 67.43144359 -67.31640625 66.8046875 C-64.09103049 65.83200977 -60.86389204 64.87181533 -57.62548828 63.94335938 C-54.48560688 63.03739511 -51.36446209 62.08183275 -48.2421875 61.1171875 C-46.79209793 60.72126907 -46.79209793 60.72126907 -45.31271362 60.31735229 C-41.50617382 59.10671994 -38.81763946 58.25138786 -36.57965088 54.82617188 C-35.51785557 52.24361851 -34.72636626 49.69497164 -34 47 C-33.50762021 45.51948121 -33.01045909 44.04054127 -32.5078125 42.56347656 C-32.04366403 41.09020047 -31.5827995 39.61588629 -31.125 38.140625 C-30.60970601 36.51421801 -30.09407111 34.88791899 -29.578125 33.26171875 C-28.78441609 30.74617359 -27.99370288 28.22979089 -27.20898438 25.71142578 C-26.43941928 23.24757626 -25.65805099 20.78771628 -24.875 18.328125 C-24.64570801 17.58113342 -24.41641602 16.83414185 -24.18017578 16.06451416 C-22.34690196 10.34724351 -19.91618252 5.82037339 -15.5 1.625 C-10.33499991 -0.77303575 -5.5997712 -0.75381535 0 0 Z " fill="#28F5B7" transform="translate(406,336)"/>
<path d="M0 0 C4.63535813 2.15213056 8.01334219 5.23793392 10 10 C10.47845787 13.80651159 10.37844376 17.54638798 10.25 21.375 C10.23195313 22.39722656 10.21390625 23.41945313 10.1953125 24.47265625 C10.14839491 26.98274749 10.08276729 29.49087764 10 32 C10.63502441 31.97905273 11.27004883 31.95810547 11.92431641 31.93652344 C14.82438076 31.85295419 17.72419116 31.80121226 20.625 31.75 C21.62402344 31.71648437 22.62304688 31.68296875 23.65234375 31.6484375 C29.81229285 31.56684877 33.31627786 31.8867312 38 36 C41.62833663 39.81930172 42.31000458 42.88279006 42.5 48 C42.31000458 53.11720994 41.62833663 56.18069828 38 60 C32.53445691 64.79986797 27.68531815 64.48686229 20.625 64.25 C19.60277344 64.23195313 18.58054687 64.21390625 17.52734375 64.1953125 C15.01725251 64.14839491 12.50912236 64.08276729 10 64 C10.0314209 64.95253662 10.0314209 64.95253662 10.06347656 65.92431641 C10.14704581 68.82438076 10.19878774 71.72419116 10.25 74.625 C10.28351563 75.62402344 10.31703125 76.62304688 10.3515625 77.65234375 C10.43315123 83.81229285 10.1132688 87.31627786 6 92 C2.18069828 95.62833663 -0.88279006 96.31000458 -6 96.5 C-11.11720994 96.31000458 -14.18069828 95.62833663 -18 92 C-22.79986797 86.53445691 -22.48686229 81.68531815 -22.25 74.625 C-22.23195313 73.60277344 -22.21390625 72.58054687 -22.1953125 71.52734375 C-22.14839491 69.01725251 -22.08276729 66.50912236 -22 64 C-22.95253662 64.0314209 -22.95253662 64.0314209 -23.92431641 64.06347656 C-26.82438076 64.14704581 -29.72419116 64.19878774 -32.625 64.25 C-33.62402344 64.28351563 -34.62304688 64.31703125 -35.65234375 64.3515625 C-41.81229285 64.43315123 -45.31627786 64.1132688 -50 60 C-53.62833663 56.18069828 -54.31000458 53.11720994 -54.5 48 C-54.31000458 42.88279006 -53.62833663 39.81930172 -50 36 C-44.53445691 31.20013203 -39.68531815 31.51313771 -32.625 31.75 C-31.60277344 31.76804687 -30.58054687 31.78609375 -29.52734375 31.8046875 C-27.01725251 31.85160509 -24.50912236 31.91723271 -22 32 C-22.02094727 31.36497559 -22.04189453 30.72995117 -22.06347656 30.07568359 C-22.14704581 27.17561924 -22.19878774 24.27580884 -22.25 21.375 C-22.28351562 20.37597656 -22.31703125 19.37695312 -22.3515625 18.34765625 C-22.43315123 12.18770715 -22.1132688 8.68372214 -18 4 C-12.72867143 -1.00776214 -6.89190982 -0.92775709 0 0 Z " fill="#29B7F5" transform="translate(86,72)"/>
</svg>
